<svg xmlns="http://www.w3.org/2000/svg" viewBox="0 0 43.75 44"><defs><style>.cls-1{fill:none;stroke:#fff;stroke-miterlimit:10;stroke-width:1.15px;}</style></defs><title>Asset 4</title><g id="Layer_2" data-name="Layer 2"><g id="Layer_1-2" data-name="Layer 1"><path class="cls-1" d="M28,0l0,3.49a20.19,20.19,0,0,1,6,1.09,14.6,14.6,0,0,1,7.45,6.84l-3.38,1.86-3.45-4-6.36-.63c.12,2.81,0,6.21.15,9,4.86.22,9.65-.12,14.52.1,1.2,12-2.54,17.51-8.84,22.52A18,18,0,0,1,23.55,43.4l0-.33c.07-2.94,0-6.64,0-10.16"/><path class="cls-1" d="M19.72,43.42c0-9.88-.32-18.08-.09-28.3-8.71,5.13-5.84,8.61-6,8.54s-1-1-3.84-3.84C7.51,17.5,7.74,17.76,7.51,17.5c-1.64-1.79-2.88,7.59-.18,12.22L4,31.48C-3.77,24.06,3.88,11.58,5.46,10c.73-.72.84-1.75,4.58,3.29a22.87,22.87,0,0,1,2.69,3c.12.15,2.83-3.15,10.78-14.48V22l2.16,0,11.79.25c.11.72,2.08,4.72-3.41,11.09a9,9,0,0,1-5.93,3c.05-2.28,0-7,.05-9.33-.25,0-.5,0-.76,0"/></g></g></svg>