<svg xmlns="http://www.w3.org/2000/svg" viewBox="0 0 59.89 62.97"><defs><style>.cls-1{stroke:#000;}.cls-1,.cls-2{stroke-miterlimit:10;stroke-width:1.15px;}.cls-2{fill:none;stroke:#fff;}</style></defs><title>Asset 10</title><g id="Layer_2" data-name="Layer 2"><g id="Layer_1-2" data-name="Layer 1"><rect class="cls-1" x="0.57" y="0.57" width="58.74" height="61.82" rx="7.63"/><path class="cls-2" d="M35.9,9.74l0,3.49a20.19,20.19,0,0,1,6,1.09,14.6,14.6,0,0,1,7.45,6.84L46,23l-3.45-4-6.36-.63c.12,2.81,0,6.21.15,9,4.86.22,9.65-.12,14.52.1C52.05,39.55,48.31,45,42,50a18,18,0,0,1-10.56,3.08l0-.33c.07-2.94,0-6.64,0-10.16"/><path class="cls-2" d="M27.62,53.13c0-9.88-.32-18.08-.09-28.3-8.71,5.13-5.84,8.61-6,8.54s-1-1-3.84-3.84c-2.31-2.32-2.08-2.06-2.31-2.32-1.64-1.79-2.88,7.59-.18,12.22L11.9,41.19c-7.77-7.42-.12-19.9,1.46-21.46C14.09,19,14.2,18,17.94,23a22.87,22.87,0,0,1,2.69,3c.12.15,2.83-3.15,10.78-14.48V31.66l2.16,0L45.36,32c.11.72,2.08,4.72-3.41,11.09a9,9,0,0,1-5.93,3c0-2.28,0-7,0-9.33-.25,0-.5,0-.76,0"/></g></g></svg>