<svg xmlns="http://www.w3.org/2000/svg" viewBox="0 0 192.03 237.43"><defs><style>.cls-1{fill:#fff;}.cls-1,.cls-2{stroke:#000;stroke-miterlimit:10;stroke-width:10px;}.cls-2{fill:none;}</style></defs><title>Asset 18</title><g id="Layer_2" data-name="Layer 2"><g id="Layer_1-2" data-name="Layer 1"><path class="cls-1" d="M83.73,237.4c.12-23.84.79-51.69.53-75.53C84.14,150.42,84,139,84,127.51s2.4-25.68,0-36.82C83.8,89.44,66.74,104,65.46,105.82c-5,7-5.53,15.4-7.61,23.32-8.43-8.64-16.06-18.26-24-27.36-.62-.71-1.38-1.48-2.32-1.41-1.23.08-1.85,1.51-2.17,2.7a87.58,87.58,0,0,0,2.58,53,4,4,0,0,1,.33,2.78,3.78,3.78,0,0,1-1.77,1.67L21.6,165.8a3.65,3.65,0,0,1-2.27.74,3.5,3.5,0,0,1-2-1.53C9.52,155.17,5.62,142.6,5.07,130.07s2.09-25,6.31-36.85a139.41,139.41,0,0,1,11-23.49c1.82-3.12,4.75-6.6,8.26-5.76a8.5,8.5,0,0,1,4,2.94A126.92,126.92,0,0,1,51.24,90c1.29,2.31,3.41,5.05,5.92,4.23a5.36,5.36,0,0,0,2.25-1.79c16.72-19.59,29.66-44.19,43.22-66.05.3,36.39.07,77.25,0,108.73l2.07,0s18.18-.33,36.38-.38a20.85,20.85,0,0,1,19.69,28c-2.48,6.62-6.78,14.28-13.94,22.89-9.33,11.2-19.54,12.66-26.26,13.87.14-6.86.1-18.67.12-28.91,0-7.58-9.14-13.72-16.72-13.69h2.85"/><path class="cls-2" d="M103.93,152.28l-1,70.15c18.47.29,37.43-8.77,44-14.19,23.67-19.46,39.18-35.8,40.06-75.43.28-12.77-3.46-20.21-14.11-26.15-10.3-5.74-31.16-3.68-44.85-4.33q-.6-13.89-1.18-27.79a9.32,9.32,0,0,1,10.3-9.66c2.49.27,9.81,1.71,7.48.8-1.74-.67,3.06,2.44,6.62,5.09a42.77,42.77,0,0,1,7.43,6.72A10.89,10.89,0,0,0,172.5,80l.15-.08a8,8,0,0,0,2.76-11.25A67.71,67.71,0,0,0,146,43.3c-8.1-3.58-14.85-4.08-21.53-4.52V0"/></g></g></svg>