<svg xmlns="http://www.w3.org/2000/svg" viewBox="0 0 271.97 269.35"><defs><style>.cls-1{fill:none;stroke:#fff;stroke-miterlimit:10;stroke-width:12px;}</style></defs><title>Asset 14</title><g id="Layer_2" data-name="Layer 2"><g id="Layer_1-2" data-name="Layer 1"><path class="cls-1" d="M156.36,165.67c-3.46.05-6.84.08-9.91-.1-.75,28,.68,67.69,0,95.74l-.17,1.89c26.58,1.64,54.89-10.71,64.41-18C249.13,216,272,184,264.6,113.68c-29.68-1.31-59,.7-88.63-.6-.76-16.42-.15-36.29-.89-52.71,10.51,1,28.29,2.64,38.8,3.68q10.53,11.72,21.06,23.39l20.63-10.88c-3.24-6.27-15.41-27.63-45.43-39.93-11.18-4.55-27.33-5.83-36.55-6.4l-.25-20.36"/><path class="cls-1" d="M119.9,263.35V101.77c-53.2,30-33.21,44.72-34,44.3-.61-.33-6.3-5.95-23.44-22.4C48.31,110.1,49.75,111.61,48.31,110.1c-10-10.46-17.56,44.34-1,71.4L26.93,191.77C-20.5,148.45,26.16,75.5,35.8,66.42c4.48-4.23,5.15-10.25,28,19.21,3.7,4.76,3.13-.3,12,11.87.69.91,21.64-12.81,70.2-79l0,6.66v111l13.2.25,72,1.42c.67,4.22,12.68,27.61-20.83,64.8-12.88,14.29-27,16.15-36.23,17.69.31-13.31,0-41.17.34-54.47-5.55-.32-12.08,0-18.33.1"/></g></g></svg>