<?xml version="1.0" standalone="no"?>
<!DOCTYPE svg PUBLIC "-//W3C//DTD SVG 20010904//EN"
 "http://www.w3.org/TR/2001/REC-SVG-20010904/DTD/svg10.dtd">
<svg version="1.0" xmlns="http://www.w3.org/2000/svg"
 width="817.000000pt" height="809.000000pt" viewBox="0 0 817.000000 809.000000"
 preserveAspectRatio="xMidYMid meet">

<g transform="translate(0.000000,809.000000) scale(0.100000,-0.100000)"
fill="#000000" stroke="none">
<path d="M4455 7925 c-458 -626 -621 -841 -920 -1215 -451 -563 -880 -1035
-1148 -1264 l-58 -49 -82 80 c-45 44 -100 90 -123 101 -30 15 -74 61 -159 168
-298 371 -485 556 -612 605 -100 38 -204 27 -287 -31 -109 -74 -292 -305 -446
-560 -320 -532 -534 -1130 -596 -1666 -25 -213 -16 -553 20 -737 62 -323 193
-622 387 -879 63 -85 344 -372 357 -366 100 45 892 451 889 456 -2 4 -32 52
-65 107 -142 233 -214 445 -267 785 -26 161 -32 596 -11 774 16 137 48 298 66
325 7 12 59 -34 232 -200 684 -660 835 -802 869 -820 83 -42 189 -11 235 67
23 38 26 54 22 105 -3 42 -11 67 -26 87 -13 15 -32 47 -43 71 -19 39 -20 50
-11 97 36 178 256 412 621 663 57 39 108 71 113 71 4 0 8 -1017 8 -2260 l0
-2260 180 0 180 0 0 2575 c0 1416 -2 2575 -4 2575 -10 0 -389 -218 -505 -290
-453 -281 -776 -582 -888 -826 l-24 -54 -347 333 c-498 478 -493 474 -559 493
-70 20 -128 13 -195 -23 -149 -81 -241 -313 -289 -728 -16 -132 -15 -519 0
-670 29 -281 90 -553 169 -750 l40 -100 -167 -84 -166 -84 -50 58 c-201 229
-343 525 -396 821 -30 168 -36 444 -15 628 48 416 174 808 402 1256 134 263
290 506 407 636 l53 58 78 -75 c91 -86 213 -225 371 -423 122 -153 172 -204
234 -235 38 -20 101 -85 193 -201 56 -70 98 -94 163 -94 70 0 137 34 270 141
135 107 500 470 699 695 258 292 732 873 933 1143 l22 30 1 -1581 0 -1582 228
-6 c125 -4 704 -16 1287 -27 583 -11 1065 -21 1071 -24 42 -14 52 -370 16
-542 -72 -333 -270 -686 -598 -1063 -145 -166 -268 -263 -449 -351 -105 -51
-219 -91 -320 -113 l-30 -6 3 793 3 794 -103 7 c-57 3 -262 6 -456 6 -194 0
-417 2 -496 6 l-143 7 -6 -274 c-4 -151 -4 -821 0 -1490 5 -952 3 -1249 -7
-1368 -7 -84 -10 -155 -6 -158 13 -13 578 -8 681 5 507 67 1084 262 1437 485
297 188 809 654 1051 957 521 652 758 1346 793 2320 10 294 -37 1042 -67 1061
-25 15 -497 21 -1530 20 l-1106 -2 -6 248 c-4 136 -7 409 -7 606 l0 358 43 -5
c23 -4 215 -22 427 -41 212 -19 392 -36 401 -38 8 -1 168 -171 353 -377 186
-206 343 -374 349 -372 14 4 880 461 886 468 7 7 -62 143 -139 274 -308 522
-841 962 -1435 1185 -198 74 -507 137 -817 166 l-128 12 0 224 0 223 -177 -2
-178 -3 -3 -370 c-1 -203 0 -379 2 -391 5 -20 16 -21 193 -33 347 -23 602 -58
812 -112 418 -108 905 -422 1201 -776 80 -96 185 -242 179 -248 -17 -15 -314
-165 -324 -163 -6 2 -139 145 -295 318 -245 272 -288 316 -319 323 -20 4 -326
34 -681 67 -355 33 -665 63 -689 66 l-44 7 7 -94 c3 -52 11 -447 16 -879 6
-432 14 -830 18 -885 l7 -100 135 -8 c74 -5 673 -8 1332 -7 l1196 1 9 -78 c4
-43 8 -262 8 -488 0 -430 -7 -532 -55 -810 -122 -698 -436 -1275 -975 -1794
-202 -193 -509 -445 -648 -530 -284 -174 -743 -337 -1127 -400 -118 -19 -320
-41 -384 -41 l-28 0 6 183 c4 100 3 610 -2 1132 -5 523 -7 1018 -4 1100 l4
150 237 2 236 3 -3 -573 c-1 -314 -3 -690 -5 -835 -1 -170 2 -262 8 -262 33 0
430 73 517 95 353 90 646 267 884 533 398 446 629 864 716 1293 19 97 23 144
23 309 -1 180 -3 204 -29 310 -16 63 -38 162 -50 220 -21 98 -24 105 -47 107
-13 1 -581 12 -1261 25 l-1238 22 -2 1950 -3 1950 -110 -149z"/>
</g>
</svg>
