<?xml version="1.0" standalone="no"?>
<!DOCTYPE svg PUBLIC "-//W3C//DTD SVG 20010904//EN"
 "http://www.w3.org/TR/2001/REC-SVG-20010904/DTD/svg10.dtd">
<svg version="1.0" xmlns="http://www.w3.org/2000/svg"
 width="2504.000000pt" height="2529.000000pt" viewBox="0 0 2504.000000 2529.000000"
 preserveAspectRatio="xMidYMid meet">

<g transform="translate(0.000000,2529.000000) scale(0.100000,-0.100000)"
fill="#000000" stroke="10" sroke-width="20">
<path d="M16331 25278 c-156 -4 -287 -10 -289 -13 -6 -6 65 -2949 74 -3061 l5
-71 187 -12 c533 -34 831 -59 1132 -97 732 -91 1326 -242 1870 -474 1423 -608
2622 -1559 3470 -2750 114 -160 275 -408 338 -520 l31 -56 -646 -352 c-524
-286 -648 -351 -658 -340 -7 7 -327 375 -711 818 -1062 1224 -1114 1284 -1132
1296 -30 21 -720 81 -1937 169 -821 60 -1200 91 -1645 135 -157 15 -286 27
-287 26 0 0 5 -138 12 -306 29 -662 46 -1246 65 -2235 21 -1120 34 -1589 67
-2344 11 -260 21 -404 27 -406 6 -2 778 -38 1716 -79 4601 -204 6204 -277
6208 -281 11 -11 13 -1595 3 -2190 -15 -881 -32 -1347 -72 -1985 -175 -2833
-667 -4523 -1729 -5945 -255 -342 -472 -588 -854 -971 -394 -393 -724 -686
-1211 -1076 -207 -165 -301 -226 -510 -328 -1228 -600 -3691 -1035 -5634 -996
-173 3 -315 7 -316 9 0 1 2 214 6 472 15 1029 -1 4606 -21 4628 -4 5 -185 5
-401 0 l-394 -8 0 -85 c0 -47 6 -809 14 -1695 13 -1567 7 -2817 -18 -3795 -4
-146 -5 -267 -4 -269 5 -7 485 -38 771 -50 2176 -94 4942 375 6367 1079 270
133 398 217 675 440 1119 902 1867 1682 2435 2540 1060 1600 1535 3532 1665
6775 25 628 31 953 36 1960 5 936 -5 2248 -17 2259 -2 2 -319 18 -704 35 -385
17 -2115 94 -3845 171 -1730 77 -3204 143 -3276 146 l-131 7 -7 196 c-15 460
-27 934 -41 1661 -18 946 -33 1541 -41 1678 -6 100 -5 102 16 102 12 0 135 -9
273 -20 139 -11 533 -40 877 -65 1098 -79 1460 -111 1476 -128 6 -7 386 -444
845 -972 1165 -1342 1169 -1347 1195 -1374 l22 -24 129 70 c70 39 641 350
1268 692 627 343 1142 624 1143 626 9 8 -320 641 -421 811 -358 602 -767 1125
-1282 1639 -644 644 -1330 1150 -2160 1593 -974 520 -1846 781 -3027 906 -128
14 -277 28 -330 32 -81 6 -98 10 -98 23 0 9 -14 527 -30 1151 -16 624 -30
1159 -30 1188 l0 52 -112 -2 c-62 0 -241 -5 -397 -10z"/>
<path d="M13275 23928 c-2611 -3699 -4695 -6536 -5720 -7786 -88 -107 -165
-197 -171 -199 -6 -2 -56 52 -110 119 -237 295 -451 518 -794 824 -124 111
-248 228 -275 260 -28 33 -145 183 -260 334 -933 1228 -1491 1826 -1897 2031
-184 93 -390 123 -557 80 -108 -27 -212 -79 -292 -145 -93 -77 -412 -415 -526
-558 -431 -541 -979 -1459 -1381 -2313 -761 -1618 -1183 -3159 -1273 -4642
-15 -256 -6 -970 15 -1188 111 -1118 405 -2043 924 -2900 285 -470 599 -864
1031 -1293 129 -128 250 -245 270 -261 l36 -28 1253 657 c689 362 1255 660
1258 662 2 3 -46 90 -107 194 -206 349 -300 539 -414 829 -260 664 -423 1448
-501 2405 -21 265 -30 1070 -15 1352 44 801 165 1473 333 1849 17 38 35 69 40
69 10 0 771 -754 2333 -2311 605 -603 1121 -1110 1147 -1128 155 -104 356 -97
494 18 112 91 170 270 133 406 -6 22 -35 90 -64 150 -84 174 -114 295 -122
490 -22 523 233 1091 771 1715 119 139 449 467 611 609 252 220 497 414 787
623 222 159 598 411 604 405 3 -3 0 -274 -6 -603 -28 -1536 -23 -4654 10
-7229 46 -3512 56 -4494 66 -6238 l7 -1187 400 0 400 0 -6 1382 c-8 1450 -14
2116 -47 4693 -33 2602 -39 3237 -46 4735 -8 1828 6 3389 47 5312 7 307 10
561 7 564 -8 7 -763 -435 -1058 -619 -836 -522 -1476 -1010 -2004 -1527 -766
-751 -1191 -1461 -1321 -2204 l-7 -39 -921 919 c-1695 1691 -1824 1817 -1902
1862 -122 71 -181 86 -330 87 -117 0 -138 -3 -203 -27 -41 -15 -99 -42 -130
-60 -82 -48 -220 -189 -287 -291 -508 -782 -698 -2850 -429 -4662 113 -758
315 -1502 555 -2037 28 -62 57 -127 65 -145 l14 -32 -248 -130 c-136 -71 -422
-222 -637 -335 l-390 -205 -76 78 c-354 367 -695 858 -943 1361 -331 668 -508
1331 -588 2195 -20 219 -17 978 5 1230 88 989 314 1949 703 2991 394 1055 958
2152 1528 2974 178 257 279 382 478 590 l136 144 59 -39 c317 -209 817 -776
1621 -1836 239 -315 307 -390 591 -643 412 -369 665 -654 1019 -1147 70 -98
112 -139 180 -173 138 -69 291 -58 432 31 211 134 892 971 2065 2538 889 1187
2349 3196 3281 4513 l129 183 3 -5244 2 -5245 183 -6 c100 -3 472 -11 827 -17
1800 -31 6990 -146 6999 -154 24 -26 45 -311 45 -605 0 -294 -11 -443 -50
-710 -141 -964 -553 -2079 -1214 -3285 -419 -763 -677 -1131 -1070 -1525 -496
-495 -1139 -910 -1756 -1133 l-71 -25 -6 886 c-4 488 -10 1594 -14 2458 l-6
1572 -286 6 c-157 3 -335 7 -396 9 l-110 2 -7 -320 c-7 -287 0 -1688 18 -3730
4 -436 2 -949 -5 -1299 -7 -318 -10 -580 -8 -583 8 -7 571 97 715 133 705 174
1486 583 2108 1101 427 356 799 769 1101 1223 354 532 881 1537 1166 2220 619
1488 825 2768 621 3855 -13 72 -38 220 -56 330 -17 110 -34 204 -39 209 -7 8
-6324 146 -7364 161 -225 3 -434 8 -462 11 l-53 5 0 6110 c0 3360 -3 6109 -7
6109 -5 -1 -269 -371 -588 -822z"/>
</g>
</svg>
